# xmcd
#
# Track frame offsets:
#	150
#	14488
#	30646
#	42933
#	53858
#	67571
#	83049
#	97134
#	112087
#	129432
#	142216
#	160786
#	173833
#	190542
#	205816
#	221151
#	234266
#	248896
#
# Disc length: 3469 seconds
#
# Revision: 0
# Processed by: cddbd v1.5.1PL0 Copyright (c) Steve Scherf et al.
# Submitted via: dBpowerAMP V4.0
#
DISCID=f70d8b12
DTITLE=Varios - Sertanejo Mais Que Nunca
DYEAR=1900
DGENRE=Sertanejo (BR)
TTITLE0=Saudade da Minha Terra
TTITLE1=Flor do Cafezal
TTITLE2=Nao Beba Mais Nao
TTITLE3=Marvada Pinga
TTITLE4=Nao Me Abandones
TTITLE5=O Menino da Porteira
TTITLE6=Chalana
TTITLE7=Boneca Cobicada
TTITLE8=Magoa de Boiadeiro
TTITLE9=Pingo D Agua
TTITLE10=Romaria
TTITLE11=Joao de Barro
TTITLE12=Rio de Lagrimas
TTITLE13=Viola Cabocla
TTITLE14=Biquini Preto
TTITLE15=Fio de Cabelo
TTITLE16=Parede e Meia
TTITLE17=Whiski com Gelo
EXTD=
EXTT0=
EXTT1=
EXTT2=
EXTT3=
EXTT4=
EXTT5=
EXTT6=
EXTT7=
EXTT8=
EXTT9=
EXTT10=
EXTT11=
EXTT12=
EXTT13=
EXTT14=
EXTT15=
EXTT16=
EXTT17=
PLAYORDER=
